<?xml version="1.0" encoding="UTF-8" standalone="no"?>
<!DOCTYPE svg PUBLIC "-//W3C//DTD SVG 1.1//EN"
 "http://www.w3.org/Graphics/SVG/1.1/DTD/svg11.dtd">
<!-- Generated by graphviz version 2.36.0 (20140111.2315)
 -->
<!-- Title: controllers_diagram Pages: 1 -->
<svg width="631pt" height="597pt"
 viewBox="0.00 0.00 631.00 597.00" xmlns="http://www.w3.org/2000/svg" xmlns:xlink="http://www.w3.org/1999/xlink">
<g id="graph0" class="graph" transform="scale(1 1) rotate(0) translate(4 593)">
<title>controllers_diagram</title>
<polygon fill="none" stroke="none" points="-4,4 -4,-593 627,-593 627,4 -4,4"/>
<!-- _diagram_info -->
<g id="node1" class="node"><title>_diagram_info</title>
<text text-anchor="start" x="376" y="-431.6" font-family="Times,serif" font-size="13.00">Controllers diagram</text>
<text text-anchor="start" x="376" y="-417.6" font-family="Times,serif" font-size="13.00">Date: Nov 19 2015 &#45; 16:18</text>
<text text-anchor="start" x="376" y="-403.6" font-family="Times,serif" font-size="13.00">Migration version: 20151119053341</text>
<text text-anchor="start" x="376" y="-389.6" font-family="Times,serif" font-size="13.00">Generated by RailRoady 1.4.1</text>
<text text-anchor="start" x="376" y="-375.6" font-family="Times,serif" font-size="13.00">http://railroady.prestonlee.com</text>
</g>
<!-- OmniauthCallbacksController -->
<g id="node2" class="node"><title>OmniauthCallbacksController</title>
<path fill="none" stroke="black" d="M172,-384.5C172,-384.5 328,-384.5 328,-384.5 334,-384.5 340,-390.5 340,-396.5 340,-396.5 340,-480.5 340,-480.5 340,-486.5 334,-492.5 328,-492.5 328,-492.5 172,-492.5 172,-492.5 166,-492.5 160,-486.5 160,-480.5 160,-480.5 160,-396.5 160,-396.5 160,-390.5 166,-384.5 172,-384.5"/>
<text text-anchor="middle" x="250" y="-477.3" font-family="Times,serif" font-size="14.00">OmniauthCallbacksController</text>
<polyline fill="none" stroke="black" points="160,-469.5 340,-469.5 "/>
<text text-anchor="start" x="168" y="-454.3" font-family="Times,serif" font-size="14.00">all</text>
<text text-anchor="start" x="168" y="-439.3" font-family="Times,serif" font-size="14.00">facebook</text>
<polyline fill="none" stroke="black" points="160,-431.5 340,-431.5 "/>
<polyline fill="none" stroke="black" points="160,-407.5 340,-407.5 "/>
<text text-anchor="start" x="168" y="-392.3" font-family="Times,serif" font-size="14.00">_layout</text>
</g>
<!-- NotificationsController -->
<g id="node3" class="node"><title>NotificationsController</title>
<path fill="none" stroke="black" d="M492,-480.5C492,-480.5 611,-480.5 611,-480.5 617,-480.5 623,-486.5 623,-492.5 623,-492.5 623,-576.5 623,-576.5 623,-582.5 617,-588.5 611,-588.5 611,-588.5 492,-588.5 492,-588.5 486,-588.5 480,-582.5 480,-576.5 480,-576.5 480,-492.5 480,-492.5 480,-486.5 486,-480.5 492,-480.5"/>
<text text-anchor="middle" x="551.5" y="-573.3" font-family="Times,serif" font-size="14.00">NotificationsController</text>
<polyline fill="none" stroke="black" points="480,-565.5 623,-565.5 "/>
<text text-anchor="start" x="488" y="-550.3" font-family="Times,serif" font-size="14.00">index</text>
<text text-anchor="start" x="488" y="-535.3" font-family="Times,serif" font-size="14.00">read</text>
<polyline fill="none" stroke="black" points="480,-527.5 623,-527.5 "/>
<polyline fill="none" stroke="black" points="480,-503.5 623,-503.5 "/>
<text text-anchor="start" x="488" y="-488.3" font-family="Times,serif" font-size="14.00">_layout</text>
</g>
<!-- RequestsController -->
<g id="node4" class="node"><title>RequestsController</title>
<path fill="none" stroke="black" d="M348,-144.5C348,-144.5 445,-144.5 445,-144.5 451,-144.5 457,-150.5 457,-156.5 457,-156.5 457,-315.5 457,-315.5 457,-321.5 451,-327.5 445,-327.5 445,-327.5 348,-327.5 348,-327.5 342,-327.5 336,-321.5 336,-315.5 336,-315.5 336,-156.5 336,-156.5 336,-150.5 342,-144.5 348,-144.5"/>
<text text-anchor="middle" x="396.5" y="-312.3" font-family="Times,serif" font-size="14.00">RequestsController</text>
<polyline fill="none" stroke="black" points="336,-304.5 457,-304.5 "/>
<text text-anchor="start" x="344" y="-289.3" font-family="Times,serif" font-size="14.00">accept</text>
<text text-anchor="start" x="344" y="-274.3" font-family="Times,serif" font-size="14.00">cancel</text>
<text text-anchor="start" x="344" y="-259.3" font-family="Times,serif" font-size="14.00">create</text>
<text text-anchor="start" x="344" y="-244.3" font-family="Times,serif" font-size="14.00">decline</text>
<text text-anchor="start" x="344" y="-229.3" font-family="Times,serif" font-size="14.00">index</text>
<polyline fill="none" stroke="black" points="336,-221.5 457,-221.5 "/>
<polyline fill="none" stroke="black" points="336,-197.5 457,-197.5 "/>
<text text-anchor="start" x="344" y="-182.3" font-family="Times,serif" font-size="14.00">_layout</text>
<text text-anchor="start" x="344" y="-167.3" font-family="Times,serif" font-size="14.00">request_params</text>
<text text-anchor="start" x="344" y="-152.3" font-family="Times,serif" font-size="14.00">validate_request</text>
</g>
<!-- Users::RegistrationsController -->
<g id="node5" class="node"><title>Users::RegistrationsController</title>
<path fill="none" stroke="black" d="M348,-0.5C348,-0.5 506,-0.5 506,-0.5 512,-0.5 518,-6.5 518,-12.5 518,-12.5 518,-97.5 518,-97.5 518,-103.5 512,-109.5 506,-109.5 506,-109.5 348,-109.5 348,-109.5 342,-109.5 336,-103.5 336,-97.5 336,-97.5 336,-12.5 336,-12.5 336,-6.5 342,-0.5 348,-0.5"/>
<text text-anchor="middle" x="427" y="-94.3" font-family="Times,serif" font-size="14.00">Users::RegistrationsController</text>
<polyline fill="none" stroke="black" points="336,-86.5 518,-86.5 "/>
<polyline fill="none" stroke="black" points="336,-62.5 518,-62.5 "/>
<polyline fill="none" stroke="black" points="336,-38.5 518,-38.5 "/>
<text text-anchor="start" x="344" y="-23.3" font-family="Times,serif" font-size="14.00">_layout</text>
<text text-anchor="start" x="344" y="-8.3" font-family="Times,serif" font-size="14.00">sign_up_params</text>
</g>
<!-- UsersController -->
<g id="node6" class="node"><title>UsersController</title>
<path fill="none" stroke="black" d="M60,-176.5C60,-176.5 139,-176.5 139,-176.5 145,-176.5 151,-182.5 151,-188.5 151,-188.5 151,-332.5 151,-332.5 151,-338.5 145,-344.5 139,-344.5 139,-344.5 60,-344.5 60,-344.5 54,-344.5 48,-338.5 48,-332.5 48,-332.5 48,-188.5 48,-188.5 48,-182.5 54,-176.5 60,-176.5"/>
<text text-anchor="middle" x="99.5" y="-329.3" font-family="Times,serif" font-size="14.00">UsersController</text>
<polyline fill="none" stroke="black" points="48,-321.5 151,-321.5 "/>
<text text-anchor="start" x="56" y="-306.3" font-family="Times,serif" font-size="14.00">account</text>
<text text-anchor="start" x="56" y="-291.3" font-family="Times,serif" font-size="14.00">address</text>
<text text-anchor="start" x="56" y="-276.3" font-family="Times,serif" font-size="14.00">shared_books</text>
<text text-anchor="start" x="56" y="-261.3" font-family="Times,serif" font-size="14.00">show</text>
<text text-anchor="start" x="56" y="-246.3" font-family="Times,serif" font-size="14.00">update_address</text>
<polyline fill="none" stroke="black" points="48,-238.5 151,-238.5 "/>
<polyline fill="none" stroke="black" points="48,-214.5 151,-214.5 "/>
<text text-anchor="start" x="56" y="-199.3" font-family="Times,serif" font-size="14.00">_layout</text>
<text text-anchor="start" x="56" y="-184.3" font-family="Times,serif" font-size="14.00">user_params</text>
</g>
<!-- AppController -->
<g id="node7" class="node"><title>AppController</title>
<path fill="none" stroke="black" d="M44,-448.5C44,-448.5 115,-448.5 115,-448.5 121,-448.5 127,-454.5 127,-460.5 127,-460.5 127,-544.5 127,-544.5 127,-550.5 121,-556.5 115,-556.5 115,-556.5 44,-556.5 44,-556.5 38,-556.5 32,-550.5 32,-544.5 32,-544.5 32,-460.5 32,-460.5 32,-454.5 38,-448.5 44,-448.5"/>
<text text-anchor="middle" x="79.5" y="-541.3" font-family="Times,serif" font-size="14.00">AppController</text>
<polyline fill="none" stroke="black" points="32,-533.5 127,-533.5 "/>
<text text-anchor="start" x="40" y="-518.3" font-family="Times,serif" font-size="14.00">index</text>
<text text-anchor="start" x="40" y="-503.3" font-family="Times,serif" font-size="14.00">search</text>
<polyline fill="none" stroke="black" points="32,-495.5 127,-495.5 "/>
<polyline fill="none" stroke="black" points="32,-471.5 127,-471.5 "/>
<text text-anchor="start" x="40" y="-456.3" font-family="Times,serif" font-size="14.00">_layout</text>
</g>
<!-- BooksController -->
<g id="node8" class="node"><title>BooksController</title>
<path fill="none" stroke="black" d="M188,-96.5C188,-96.5 292,-96.5 292,-96.5 298,-96.5 304,-102.5 304,-108.5 304,-108.5 304,-342.5 304,-342.5 304,-348.5 298,-354.5 292,-354.5 292,-354.5 188,-354.5 188,-354.5 182,-354.5 176,-348.5 176,-342.5 176,-342.5 176,-108.5 176,-108.5 176,-102.5 182,-96.5 188,-96.5"/>
<text text-anchor="middle" x="240" y="-339.3" font-family="Times,serif" font-size="14.00">BooksController</text>
<polyline fill="none" stroke="black" points="176,-331.5 304,-331.5 "/>
<text text-anchor="start" x="184" y="-316.3" font-family="Times,serif" font-size="14.00">create</text>
<text text-anchor="start" x="184" y="-301.3" font-family="Times,serif" font-size="14.00">edit</text>
<text text-anchor="start" x="184" y="-286.3" font-family="Times,serif" font-size="14.00">give_back</text>
<text text-anchor="start" x="184" y="-271.3" font-family="Times,serif" font-size="14.00">lock</text>
<text text-anchor="start" x="184" y="-256.3" font-family="Times,serif" font-size="14.00">new</text>
<text text-anchor="start" x="184" y="-241.3" font-family="Times,serif" font-size="14.00">pickup_time</text>
<text text-anchor="start" x="184" y="-226.3" font-family="Times,serif" font-size="14.00">show</text>
<text text-anchor="start" x="184" y="-211.3" font-family="Times,serif" font-size="14.00">unlock</text>
<text text-anchor="start" x="184" y="-196.3" font-family="Times,serif" font-size="14.00">update</text>
<text text-anchor="start" x="184" y="-181.3" font-family="Times,serif" font-size="14.00">update_pickup_time</text>
<polyline fill="none" stroke="black" points="176,-173.5 304,-173.5 "/>
<polyline fill="none" stroke="black" points="176,-149.5 304,-149.5 "/>
<text text-anchor="start" x="184" y="-134.3" font-family="Times,serif" font-size="14.00">_layout</text>
<text text-anchor="start" x="184" y="-119.3" font-family="Times,serif" font-size="14.00">book_params</text>
<text text-anchor="start" x="184" y="-104.3" font-family="Times,serif" font-size="14.00">get_book_details</text>
</g>
<!-- ApplicationController -->
<g id="node9" class="node"><title>ApplicationController</title>
<path fill="none" stroke="black" d="M12,-48.5C12,-48.5 124,-48.5 124,-48.5 130,-48.5 136,-54.5 136,-60.5 136,-60.5 136,-130.5 136,-130.5 136,-136.5 130,-142.5 124,-142.5 124,-142.5 12,-142.5 12,-142.5 6,-142.5 -2.84217e-14,-136.5 -2.84217e-14,-130.5 -2.84217e-14,-130.5 -2.84217e-14,-60.5 -2.84217e-14,-60.5 -2.84217e-14,-54.5 6,-48.5 12,-48.5"/>
<text text-anchor="middle" x="68" y="-127.3" font-family="Times,serif" font-size="14.00">ApplicationController</text>
<polyline fill="none" stroke="black" points="-2.84217e-14,-119.5 136,-119.5 "/>
<polyline fill="none" stroke="black" points="-2.84217e-14,-95.5 136,-95.5 "/>
<polyline fill="none" stroke="black" points="-2.84217e-14,-71.5 136,-71.5 "/>
<text text-anchor="start" x="8" y="-56.3" font-family="Times,serif" font-size="14.00">_layout</text>
</g>
</g>
</svg>
