<?xml version="1.0" encoding="UTF-8" standalone="no"?>
<!DOCTYPE svg PUBLIC "-//W3C//DTD SVG 1.1//EN"
 "http://www.w3.org/Graphics/SVG/1.1/DTD/svg11.dtd">
<!-- Generated by graphviz version 2.36.0 (20140111.2315)
 -->
<!-- Title: models_diagram Pages: 1 -->
<svg width="1384pt" height="248pt"
 viewBox="0.00 0.00 1384.00 248.00" xmlns="http://www.w3.org/2000/svg" xmlns:xlink="http://www.w3.org/1999/xlink">
<g id="graph0" class="graph" transform="scale(1 1) rotate(0) translate(4 244)">
<title>models_diagram</title>
<polygon fill="none" stroke="none" points="-4,4 -4,-244 1380,-244 1380,4 -4,4"/>
<!-- _diagram_info -->
<g id="node1" class="node"><title>_diagram_info</title>
<text text-anchor="start" x="8" y="-225.6" font-family="Times,serif" font-size="13.00">Models diagram</text>
<text text-anchor="start" x="8" y="-211.6" font-family="Times,serif" font-size="13.00">Date: Nov 19 2015 &#45; 16:18</text>
<text text-anchor="start" x="8" y="-197.6" font-family="Times,serif" font-size="13.00">Migration version: 20151119053341</text>
<text text-anchor="start" x="8" y="-183.6" font-family="Times,serif" font-size="13.00">Generated by RailRoady 1.4.1</text>
<text text-anchor="start" x="8" y="-169.6" font-family="Times,serif" font-size="13.00">http://railroady.prestonlee.com</text>
</g>
<!-- GiveAwayRequest -->
<g id="node2" class="node"><title>GiveAwayRequest</title>
<ellipse fill="none" stroke="black" cx="309" cy="-201" rx="77.0154" ry="18"/>
<text text-anchor="middle" x="309" y="-197.3" font-family="Times,serif" font-size="14.00">GiveAwayRequest</text>
</g>
<!-- RequestDeclinedNotification -->
<g id="node3" class="node"><title>RequestDeclinedNotification</title>
<ellipse fill="none" stroke="black" cx="517" cy="-201" rx="113.135" ry="18"/>
<text text-anchor="middle" x="517" y="-197.3" font-family="Times,serif" font-size="14.00">RequestDeclinedNotification</text>
</g>
<!-- Book -->
<g id="node4" class="node"><title>Book</title>
<ellipse fill="none" stroke="black" cx="569" cy="-92" rx="29.3479" ry="18"/>
<text text-anchor="middle" x="569" y="-88.3" font-family="Times,serif" font-size="14.00">Book</text>
</g>
<!-- Request -->
<g id="node6" class="node"><title>Request</title>
<ellipse fill="none" stroke="black" cx="675" cy="-18" rx="38.4949" ry="18"/>
<text text-anchor="middle" x="675" y="-14.3" font-family="Times,serif" font-size="14.00">Request</text>
</g>
<!-- Book&#45;&gt;Request -->
<g id="edge1" class="edge"><title>Book&#45;&gt;Request</title>
<path fill="none" stroke="#28af46" d="M594.851,-73.4406C610.189,-63.0223 629.683,-49.7812 645.605,-38.9663"/>
<ellipse fill="none" stroke="#28af46" cx="591.26" cy="-75.8803" rx="4.00002" ry="4.00002"/>
<polygon fill="#28af46" stroke="#28af46" points="645.762,-38.8599 656.563,-36.9635 649.898,-36.0504 654.034,-33.241 654.034,-33.241 654.034,-33.241 649.898,-36.0504 651.506,-29.5185 645.762,-38.8599 645.762,-38.8599"/>
</g>
<!-- User -->
<g id="node5" class="node"><title>User</title>
<ellipse fill="none" stroke="black" cx="675" cy="-201" rx="26.949" ry="18"/>
<text text-anchor="middle" x="675" y="-197.3" font-family="Times,serif" font-size="14.00">User</text>
</g>
<!-- User&#45;&gt;Book -->
<g id="edge2" class="edge"><title>User&#45;&gt;Book</title>
<path fill="none" stroke="#82e639" d="M658.792,-178.383C653.165,-172.231 646.393,-166.096 639,-162 603.7,-142.44 575.552,-175.237 550,-144 543.629,-136.211 545.847,-126.076 550.61,-116.895"/>
<ellipse fill="none" stroke="#82e639" cx="661.412" cy="-181.432" rx="4.00002" ry="4.00002"/>
<polygon fill="#82e639" stroke="#82e639" points="550.751,-116.667 559.829,-110.516 553.375,-112.411 555.999,-108.155 555.999,-108.155 555.999,-108.155 553.375,-112.411 552.168,-105.793 550.751,-116.667 550.751,-116.667"/>
</g>
<!-- User&#45;&gt;Book -->
<g id="edge5" class="edge"><title>User&#45;&gt;Book</title>
<path fill="none" stroke="#03d185" d="M658.027,-177.957C652.522,-172.04 646.009,-166.143 639,-162 611.716,-145.874 589.621,-168.889 570,-144 564.699,-137.276 563.259,-128.356 563.521,-119.858"/>
<ellipse fill="none" stroke="#03d185" cx="660.946" cy="-181.292" rx="4.00002" ry="4.00002"/>
<polygon fill="#03d185" stroke="#03d185" points="563.524,-119.826 569.015,-110.334 564.031,-114.852 564.538,-109.878 564.538,-109.878 564.538,-109.878 564.031,-114.852 560.061,-109.422 563.524,-119.826 563.524,-119.826"/>
<text text-anchor="middle" x="615.5" y="-132.3" font-family="Times,serif" font-size="14.00">borrowed_books</text>
</g>
<!-- User&#45;&gt;Request -->
<g id="edge3" class="edge"><title>User&#45;&gt;Request</title>
<path fill="none" stroke="#df1580" d="M675,-174.611C675,-140.823 675,-81.3028 675,-46.4866"/>
<ellipse fill="none" stroke="#df1580" cx="675" cy="-178.972" rx="4" ry="4"/>
<polygon fill="#df1580" stroke="#df1580" points="675,-46.1146 679.5,-36.1146 675,-41.1146 675,-36.1146 675,-36.1146 675,-36.1146 675,-41.1146 670.5,-36.1147 675,-46.1146 675,-46.1146"/>
</g>
<!-- User&#45;&gt;Request -->
<g id="edge4" class="edge"><title>User&#45;&gt;Request</title>
<path fill="none" stroke="#84fa16" d="M682.626,-175.058C685.195,-165.449 687.731,-154.308 689,-144 693.887,-104.3 696.564,-93.2783 689,-54 688.443,-51.1081 687.649,-48.1515 686.719,-45.2421"/>
<ellipse fill="none" stroke="#84fa16" cx="681.468" cy="-179.196" rx="4.00001" ry="4.00001"/>
<polygon fill="#84fa16" stroke="#84fa16" points="686.656,-45.0718 687.397,-34.1309 684.917,-40.3839 683.178,-35.6961 683.178,-35.6961 683.178,-35.6961 684.917,-40.3839 678.959,-37.2613 686.656,-45.0718 686.656,-45.0718"/>
<text text-anchor="middle" x="736" y="-88.3" font-family="Times,serif" font-size="14.00">requests_to_me</text>
</g>
<!-- Notification -->
<g id="node11" class="node"><title>Notification</title>
<ellipse fill="none" stroke="black" cx="878" cy="-92" rx="52.9443" ry="18"/>
<text text-anchor="middle" x="878" y="-88.3" font-family="Times,serif" font-size="14.00">Notification</text>
</g>
<!-- User&#45;&gt;Notification -->
<g id="edge6" class="edge"><title>User&#45;&gt;Notification</title>
<path fill="none" stroke="#49a781" d="M692.624,-178.26C698.078,-172.452 704.4,-166.536 711,-162 747.237,-137.096 793.856,-118.778 828.625,-107.3"/>
<ellipse fill="none" stroke="#49a781" cx="689.746" cy="-181.472" rx="4.00002" ry="4.00002"/>
<polygon fill="#49a781" stroke="#49a781" points="829.035,-107.168 839.933,-108.385 833.794,-105.635 838.553,-104.101 838.553,-104.101 838.553,-104.101 833.794,-105.635 837.173,-99.8182 829.035,-107.168 829.035,-107.168"/>
</g>
<!-- Event -->
<g id="node7" class="node"><title>Event</title>
<ellipse fill="none" stroke="black" cx="751" cy="-201" rx="31.2965" ry="18"/>
<text text-anchor="middle" x="751" y="-197.3" font-family="Times,serif" font-size="14.00">Event</text>
</g>
<!-- LendRequest -->
<g id="node8" class="node"><title>LendRequest</title>
<ellipse fill="none" stroke="black" cx="857" cy="-201" rx="57.2927" ry="18"/>
<text text-anchor="middle" x="857" y="-197.3" font-family="Times,serif" font-size="14.00">LendRequest</text>
</g>
<!-- RequestAcceptedNotification -->
<g id="node9" class="node"><title>RequestAcceptedNotification</title>
<ellipse fill="none" stroke="black" cx="1047" cy="-201" rx="114.085" ry="18"/>
<text text-anchor="middle" x="1047" y="-197.3" font-family="Times,serif" font-size="14.00">RequestAcceptedNotification</text>
</g>
<!-- NewRequestNotification -->
<g id="node10" class="node"><title>NewRequestNotification</title>
<ellipse fill="none" stroke="black" cx="1278" cy="-201" rx="98.212" ry="18"/>
<text text-anchor="middle" x="1278" y="-197.3" font-family="Times,serif" font-size="14.00">NewRequestNotification</text>
</g>
</g>
</svg>
