<?xml version="1.0" encoding="UTF-8" standalone="no"?>
<!DOCTYPE svg PUBLIC "-//W3C//DTD SVG 1.1//EN"
 "http://www.w3.org/Graphics/SVG/1.1/DTD/svg11.dtd">
<!-- Generated by graphviz version 2.36.0 (20140111.2315)
 -->
<!-- Title: models_diagram Pages: 1 -->
<svg width="1449pt" height="902pt"
 viewBox="0.00 0.00 1449.00 902.00" xmlns="http://www.w3.org/2000/svg" xmlns:xlink="http://www.w3.org/1999/xlink">
<g id="graph0" class="graph" transform="scale(1 1) rotate(0) translate(4 898)">
<title>models_diagram</title>
<polygon fill="none" stroke="none" points="-4,4 -4,-898 1445,-898 1445,4 -4,4"/>
<!-- _diagram_info -->
<g id="node1" class="node"><title>_diagram_info</title>
<text text-anchor="start" x="8" y="-699.6" font-family="Times,serif" font-size="13.00">Models diagram</text>
<text text-anchor="start" x="8" y="-685.6" font-family="Times,serif" font-size="13.00">Date: Nov 19 2015 &#45; 16:18</text>
<text text-anchor="start" x="8" y="-671.6" font-family="Times,serif" font-size="13.00">Migration version: 20151119053341</text>
<text text-anchor="start" x="8" y="-657.6" font-family="Times,serif" font-size="13.00">Generated by RailRoady 1.4.1</text>
<text text-anchor="start" x="8" y="-643.6" font-family="Times,serif" font-size="13.00">http://railroady.prestonlee.com</text>
</g>
<!-- GiveAwayRequest -->
<g id="node2" class="node"><title>GiveAwayRequest</title>
<path fill="none" stroke="black" d="M244,-592C244,-592 354,-592 354,-592 360,-592 366,-598 366,-604 366,-604 366,-746 366,-746 366,-752 360,-758 354,-758 354,-758 244,-758 244,-758 238,-758 232,-752 232,-746 232,-746 232,-604 232,-604 232,-598 238,-592 244,-592"/>
<text text-anchor="middle" x="299" y="-742.8" font-family="Times,serif" font-size="14.00">GiveAwayRequest</text>
<polyline fill="none" stroke="black" points="232,-735 366,-735 "/>
<text text-anchor="start" x="240" y="-719.8" font-family="Times,serif" font-size="14.00">id :INTEGER</text>
<text text-anchor="start" x="240" y="-704.8" font-family="Times,serif" font-size="14.00">user_id :integer</text>
<text text-anchor="start" x="240" y="-689.8" font-family="Times,serif" font-size="14.00">book_id :integer</text>
<text text-anchor="start" x="240" y="-674.8" font-family="Times,serif" font-size="14.00">created_at :datetime</text>
<text text-anchor="start" x="240" y="-659.8" font-family="Times,serif" font-size="14.00">updated_at :datetime</text>
<text text-anchor="start" x="240" y="-644.8" font-family="Times,serif" font-size="14.00">status :integer</text>
<text text-anchor="start" x="240" y="-629.8" font-family="Times,serif" font-size="14.00">owner_id :integer</text>
<text text-anchor="start" x="240" y="-614.8" font-family="Times,serif" font-size="14.00">message :varchar</text>
<text text-anchor="start" x="240" y="-599.8" font-family="Times,serif" font-size="14.00">request_type :varchar</text>
</g>
<!-- RequestDeclinedNotification -->
<g id="node3" class="node"><title>RequestDeclinedNotification</title>
<path fill="none" stroke="black" d="M396,-607C396,-607 546,-607 546,-607 552,-607 558,-613 558,-619 558,-619 558,-731 558,-731 558,-737 552,-743 546,-743 546,-743 396,-743 396,-743 390,-743 384,-737 384,-731 384,-731 384,-619 384,-619 384,-613 390,-607 396,-607"/>
<text text-anchor="middle" x="471" y="-727.8" font-family="Times,serif" font-size="14.00">RequestDeclinedNotification</text>
<polyline fill="none" stroke="black" points="384,-720 558,-720 "/>
<text text-anchor="start" x="392" y="-704.8" font-family="Times,serif" font-size="14.00">id :INTEGER</text>
<text text-anchor="start" x="392" y="-689.8" font-family="Times,serif" font-size="14.00">user_id :integer</text>
<text text-anchor="start" x="392" y="-674.8" font-family="Times,serif" font-size="14.00">read_status :integer</text>
<text text-anchor="start" x="392" y="-659.8" font-family="Times,serif" font-size="14.00">created_at :datetime</text>
<text text-anchor="start" x="392" y="-644.8" font-family="Times,serif" font-size="14.00">updated_at :datetime</text>
<text text-anchor="start" x="392" y="-629.8" font-family="Times,serif" font-size="14.00">book_id :integer</text>
<text text-anchor="start" x="392" y="-614.8" font-family="Times,serif" font-size="14.00">type :varchar</text>
</g>
<!-- Book -->
<g id="node4" class="node"><title>Book</title>
<path fill="none" stroke="black" d="M516.5,-207C516.5,-207 623.5,-207 623.5,-207 629.5,-207 635.5,-213 635.5,-219 635.5,-219 635.5,-391 635.5,-391 635.5,-397 629.5,-403 623.5,-403 623.5,-403 516.5,-403 516.5,-403 510.5,-403 504.5,-397 504.5,-391 504.5,-391 504.5,-219 504.5,-219 504.5,-213 510.5,-207 516.5,-207"/>
<text text-anchor="middle" x="570" y="-387.8" font-family="Times,serif" font-size="14.00">Book</text>
<polyline fill="none" stroke="black" points="504.5,-380 635.5,-380 "/>
<text text-anchor="start" x="512.5" y="-364.8" font-family="Times,serif" font-size="14.00">id :INTEGER</text>
<text text-anchor="start" x="512.5" y="-349.8" font-family="Times,serif" font-size="14.00">user_id :integer</text>
<text text-anchor="start" x="512.5" y="-334.8" font-family="Times,serif" font-size="14.00">name :varchar</text>
<text text-anchor="start" x="512.5" y="-319.8" font-family="Times,serif" font-size="14.00">image :varchar</text>
<text text-anchor="start" x="512.5" y="-304.8" font-family="Times,serif" font-size="14.00">created_at :datetime</text>
<text text-anchor="start" x="512.5" y="-289.8" font-family="Times,serif" font-size="14.00">updated_at :datetime</text>
<text text-anchor="start" x="512.5" y="-274.8" font-family="Times,serif" font-size="14.00">state :varchar</text>
<text text-anchor="start" x="512.5" y="-259.8" font-family="Times,serif" font-size="14.00">borrower_id :integer</text>
<text text-anchor="start" x="512.5" y="-244.8" font-family="Times,serif" font-size="14.00">isbn :varchar</text>
<text text-anchor="start" x="512.5" y="-229.8" font-family="Times,serif" font-size="14.00">author :varchar</text>
<text text-anchor="start" x="512.5" y="-214.8" font-family="Times,serif" font-size="14.00">pickup_time :text</text>
</g>
<!-- Request -->
<g id="node6" class="node"><title>Request</title>
<path fill="none" stroke="black" d="M621,-1C621,-1 731,-1 731,-1 737,-1 743,-7 743,-13 743,-13 743,-155 743,-155 743,-161 737,-167 731,-167 731,-167 621,-167 621,-167 615,-167 609,-161 609,-155 609,-155 609,-13 609,-13 609,-7 615,-1 621,-1"/>
<text text-anchor="middle" x="676" y="-151.8" font-family="Times,serif" font-size="14.00">Request</text>
<polyline fill="none" stroke="black" points="609,-144 743,-144 "/>
<text text-anchor="start" x="617" y="-128.8" font-family="Times,serif" font-size="14.00">id :INTEGER</text>
<text text-anchor="start" x="617" y="-113.8" font-family="Times,serif" font-size="14.00">user_id :integer</text>
<text text-anchor="start" x="617" y="-98.8" font-family="Times,serif" font-size="14.00">book_id :integer</text>
<text text-anchor="start" x="617" y="-83.8" font-family="Times,serif" font-size="14.00">created_at :datetime</text>
<text text-anchor="start" x="617" y="-68.8" font-family="Times,serif" font-size="14.00">updated_at :datetime</text>
<text text-anchor="start" x="617" y="-53.8" font-family="Times,serif" font-size="14.00">status :integer</text>
<text text-anchor="start" x="617" y="-38.8" font-family="Times,serif" font-size="14.00">owner_id :integer</text>
<text text-anchor="start" x="617" y="-23.8" font-family="Times,serif" font-size="14.00">message :varchar</text>
<text text-anchor="start" x="617" y="-8.8" font-family="Times,serif" font-size="14.00">request_type :varchar</text>
</g>
<!-- Book&#45;&gt;Request -->
<g id="edge1" class="edge"><title>Book&#45;&gt;Request</title>
<path fill="none" stroke="#4062d7" d="M620.58,-199.501C624.308,-191.797 628.053,-184.06 631.74,-176.443"/>
<ellipse fill="none" stroke="#4062d7" cx="618.699" cy="-203.387" rx="4.00002" ry="4.00002"/>
<polygon fill="#4062d7" stroke="#4062d7" points="631.846,-176.223 640.254,-169.182 634.025,-171.722 636.203,-167.222 636.203,-167.222 636.203,-167.222 634.025,-171.722 632.153,-165.261 631.846,-176.223 631.846,-176.223"/>
</g>
<!-- User -->
<g id="node5" class="node"><title>User</title>
<path fill="none" stroke="black" d="M588,-457C588,-457 764,-457 764,-457 770,-457 776,-463 776,-469 776,-469 776,-881 776,-881 776,-887 770,-893 764,-893 764,-893 588,-893 588,-893 582,-893 576,-887 576,-881 576,-881 576,-469 576,-469 576,-463 582,-457 588,-457"/>
<text text-anchor="middle" x="676" y="-877.8" font-family="Times,serif" font-size="14.00">User</text>
<polyline fill="none" stroke="black" points="576,-870 776,-870 "/>
<text text-anchor="start" x="584" y="-854.8" font-family="Times,serif" font-size="14.00">id :INTEGER</text>
<text text-anchor="start" x="584" y="-839.8" font-family="Times,serif" font-size="14.00">name :varchar</text>
<text text-anchor="start" x="584" y="-824.8" font-family="Times,serif" font-size="14.00">email :varchar</text>
<text text-anchor="start" x="584" y="-809.8" font-family="Times,serif" font-size="14.00">encrypted_password :varchar</text>
<text text-anchor="start" x="584" y="-794.8" font-family="Times,serif" font-size="14.00">reset_password_token :varchar</text>
<text text-anchor="start" x="584" y="-779.8" font-family="Times,serif" font-size="14.00">reset_password_sent_at :datetime</text>
<text text-anchor="start" x="584" y="-764.8" font-family="Times,serif" font-size="14.00">remember_created_at :datetime</text>
<text text-anchor="start" x="584" y="-749.8" font-family="Times,serif" font-size="14.00">sign_in_count :integer</text>
<text text-anchor="start" x="584" y="-734.8" font-family="Times,serif" font-size="14.00">current_sign_in_at :datetime</text>
<text text-anchor="start" x="584" y="-719.8" font-family="Times,serif" font-size="14.00">last_sign_in_at :datetime</text>
<text text-anchor="start" x="584" y="-704.8" font-family="Times,serif" font-size="14.00">current_sign_in_ip :varchar</text>
<text text-anchor="start" x="584" y="-689.8" font-family="Times,serif" font-size="14.00">last_sign_in_ip :varchar</text>
<text text-anchor="start" x="584" y="-674.8" font-family="Times,serif" font-size="14.00">confirmation_token :varchar</text>
<text text-anchor="start" x="584" y="-659.8" font-family="Times,serif" font-size="14.00">confirmed_at :datetime</text>
<text text-anchor="start" x="584" y="-644.8" font-family="Times,serif" font-size="14.00">confirmation_sent_at :datetime</text>
<text text-anchor="start" x="584" y="-629.8" font-family="Times,serif" font-size="14.00">unconfirmed_email :varchar</text>
<text text-anchor="start" x="584" y="-614.8" font-family="Times,serif" font-size="14.00">failed_attempts :integer</text>
<text text-anchor="start" x="584" y="-599.8" font-family="Times,serif" font-size="14.00">unlock_token :varchar</text>
<text text-anchor="start" x="584" y="-584.8" font-family="Times,serif" font-size="14.00">locked_at :datetime</text>
<text text-anchor="start" x="584" y="-569.8" font-family="Times,serif" font-size="14.00">created_at :datetime</text>
<text text-anchor="start" x="584" y="-554.8" font-family="Times,serif" font-size="14.00">updated_at :datetime</text>
<text text-anchor="start" x="584" y="-539.8" font-family="Times,serif" font-size="14.00">provider :varchar</text>
<text text-anchor="start" x="584" y="-524.8" font-family="Times,serif" font-size="14.00">uid :varchar</text>
<text text-anchor="start" x="584" y="-509.8" font-family="Times,serif" font-size="14.00">company :varchar</text>
<text text-anchor="start" x="584" y="-494.8" font-family="Times,serif" font-size="14.00">landmark :varchar</text>
<text text-anchor="start" x="584" y="-479.8" font-family="Times,serif" font-size="14.00">area :varchar</text>
<text text-anchor="start" x="584" y="-464.8" font-family="Times,serif" font-size="14.00">fulladdress :varchar</text>
</g>
<!-- User&#45;&gt;Book -->
<g id="edge2" class="edge"><title>User&#45;&gt;Book</title>
<path fill="none" stroke="#f573e8" d="M571.513,-462.77C570.017,-460.491 568.512,-458.234 567,-456 560.999,-447.137 554.804,-448.005 551,-438 547.984,-430.067 546.221,-421.7 545.415,-413.185"/>
<ellipse fill="none" stroke="#f573e8" cx="573.804" cy="-466.311" rx="4.00002" ry="4.00002"/>
<polygon fill="#f573e8" stroke="#f573e8" points="545.411,-413.124 549.383,-402.903 545.15,-408.131 544.889,-403.138 544.889,-403.138 544.889,-403.138 545.15,-408.131 540.395,-403.373 545.411,-413.124 545.411,-413.124"/>
</g>
<!-- User&#45;&gt;Book -->
<g id="edge5" class="edge"><title>User&#45;&gt;Book</title>
<path fill="none" stroke="#02950d" d="M573.861,-450.259C572.837,-446.162 571.881,-442.073 571,-438 569.258,-429.95 567.986,-421.559 567.085,-413.082"/>
<ellipse fill="none" stroke="#02950d" cx="574.905" cy="-454.276" rx="4.00001" ry="4.00001"/>
<polygon fill="#02950d" stroke="#02950d" points="567.084,-413.065 570.675,-402.704 566.638,-408.085 566.193,-403.105 566.193,-403.105 566.193,-403.105 566.638,-408.085 561.711,-403.506 567.084,-413.065 567.084,-413.065"/>
<text text-anchor="middle" x="616.5" y="-426.3" font-family="Times,serif" font-size="14.00">borrowed_books</text>
</g>
<!-- User&#45;&gt;Request -->
<g id="edge3" class="edge"><title>User&#45;&gt;Request</title>
<path fill="none" stroke="#c6a7e7" d="M676,-448.769C676,-354.416 676,-250.007 676,-177.338"/>
<ellipse fill="none" stroke="#c6a7e7" cx="676" cy="-452.77" rx="4" ry="4"/>
<polygon fill="#c6a7e7" stroke="#c6a7e7" points="676,-177.299 680.5,-167.299 676,-172.299 676,-167.299 676,-167.299 676,-167.299 676,-172.299 671.5,-167.299 676,-177.299 676,-177.299"/>
</g>
<!-- User&#45;&gt;Request -->
<g id="edge4" class="edge"><title>User&#45;&gt;Request</title>
<path fill="none" stroke="#190ed8" d="M691.636,-448.485C694.949,-365.847 695.906,-271.616 690,-186 689.8,-183.103 689.568,-180.162 689.31,-177.195"/>
<ellipse fill="none" stroke="#190ed8" cx="691.462" cy="-452.705" rx="4" ry="4"/>
<polygon fill="#190ed8" stroke="#190ed8" points="689.29,-176.987 692.813,-166.603 688.812,-172.01 688.333,-167.033 688.333,-167.033 688.333,-167.033 688.812,-172.01 683.854,-167.463 689.29,-176.987 689.29,-176.987"/>
<text text-anchor="middle" x="737" y="-301.3" font-family="Times,serif" font-size="14.00">requests_to_me</text>
</g>
<!-- Notification -->
<g id="node11" class="node"><title>Notification</title>
<path fill="none" stroke="black" d="M838.5,-237C838.5,-237 945.5,-237 945.5,-237 951.5,-237 957.5,-243 957.5,-249 957.5,-249 957.5,-361 957.5,-361 957.5,-367 951.5,-373 945.5,-373 945.5,-373 838.5,-373 838.5,-373 832.5,-373 826.5,-367 826.5,-361 826.5,-361 826.5,-249 826.5,-249 826.5,-243 832.5,-237 838.5,-237"/>
<text text-anchor="middle" x="892" y="-357.8" font-family="Times,serif" font-size="14.00">Notification</text>
<polyline fill="none" stroke="black" points="826.5,-350 957.5,-350 "/>
<text text-anchor="start" x="834.5" y="-334.8" font-family="Times,serif" font-size="14.00">id :INTEGER</text>
<text text-anchor="start" x="834.5" y="-319.8" font-family="Times,serif" font-size="14.00">user_id :integer</text>
<text text-anchor="start" x="834.5" y="-304.8" font-family="Times,serif" font-size="14.00">read_status :integer</text>
<text text-anchor="start" x="834.5" y="-289.8" font-family="Times,serif" font-size="14.00">created_at :datetime</text>
<text text-anchor="start" x="834.5" y="-274.8" font-family="Times,serif" font-size="14.00">updated_at :datetime</text>
<text text-anchor="start" x="834.5" y="-259.8" font-family="Times,serif" font-size="14.00">book_id :integer</text>
<text text-anchor="start" x="834.5" y="-244.8" font-family="Times,serif" font-size="14.00">type :varchar</text>
</g>
<!-- User&#45;&gt;Notification -->
<g id="edge6" class="edge"><title>User&#45;&gt;Notification</title>
<path fill="none" stroke="#027027" d="M780.076,-465.983C782.047,-462.62 784.022,-459.29 786,-456 800.99,-431.064 818.76,-404.848 835.424,-381.432"/>
<ellipse fill="none" stroke="#027027" cx="778.048" cy="-469.471" rx="4.00002" ry="4.00002"/>
<polygon fill="#027027" stroke="#027027" points="835.444,-381.404 844.925,-375.893 838.355,-377.339 841.266,-373.274 841.266,-373.274 841.266,-373.274 838.355,-377.339 837.607,-370.654 835.444,-381.404 835.444,-381.404"/>
</g>
<!-- Event -->
<g id="node7" class="node"><title>Event</title>
<path fill="none" stroke="black" d="M806.5,-622C806.5,-622 913.5,-622 913.5,-622 919.5,-622 925.5,-628 925.5,-634 925.5,-634 925.5,-716 925.5,-716 925.5,-722 919.5,-728 913.5,-728 913.5,-728 806.5,-728 806.5,-728 800.5,-728 794.5,-722 794.5,-716 794.5,-716 794.5,-634 794.5,-634 794.5,-628 800.5,-622 806.5,-622"/>
<text text-anchor="middle" x="860" y="-712.8" font-family="Times,serif" font-size="14.00">Event</text>
<polyline fill="none" stroke="black" points="794.5,-705 925.5,-705 "/>
<text text-anchor="start" x="802.5" y="-689.8" font-family="Times,serif" font-size="14.00">id :INTEGER</text>
<text text-anchor="start" x="802.5" y="-674.8" font-family="Times,serif" font-size="14.00">event_type :varchar</text>
<text text-anchor="start" x="802.5" y="-659.8" font-family="Times,serif" font-size="14.00">event_data :text</text>
<text text-anchor="start" x="802.5" y="-644.8" font-family="Times,serif" font-size="14.00">created_at :datetime</text>
<text text-anchor="start" x="802.5" y="-629.8" font-family="Times,serif" font-size="14.00">updated_at :datetime</text>
</g>
<!-- LendRequest -->
<g id="node8" class="node"><title>LendRequest</title>
<path fill="none" stroke="black" d="M956,-592C956,-592 1066,-592 1066,-592 1072,-592 1078,-598 1078,-604 1078,-604 1078,-746 1078,-746 1078,-752 1072,-758 1066,-758 1066,-758 956,-758 956,-758 950,-758 944,-752 944,-746 944,-746 944,-604 944,-604 944,-598 950,-592 956,-592"/>
<text text-anchor="middle" x="1011" y="-742.8" font-family="Times,serif" font-size="14.00">LendRequest</text>
<polyline fill="none" stroke="black" points="944,-735 1078,-735 "/>
<text text-anchor="start" x="952" y="-719.8" font-family="Times,serif" font-size="14.00">id :INTEGER</text>
<text text-anchor="start" x="952" y="-704.8" font-family="Times,serif" font-size="14.00">user_id :integer</text>
<text text-anchor="start" x="952" y="-689.8" font-family="Times,serif" font-size="14.00">book_id :integer</text>
<text text-anchor="start" x="952" y="-674.8" font-family="Times,serif" font-size="14.00">created_at :datetime</text>
<text text-anchor="start" x="952" y="-659.8" font-family="Times,serif" font-size="14.00">updated_at :datetime</text>
<text text-anchor="start" x="952" y="-644.8" font-family="Times,serif" font-size="14.00">status :integer</text>
<text text-anchor="start" x="952" y="-629.8" font-family="Times,serif" font-size="14.00">owner_id :integer</text>
<text text-anchor="start" x="952" y="-614.8" font-family="Times,serif" font-size="14.00">message :varchar</text>
<text text-anchor="start" x="952" y="-599.8" font-family="Times,serif" font-size="14.00">request_type :varchar</text>
</g>
<!-- RequestAcceptedNotification -->
<g id="node9" class="node"><title>RequestAcceptedNotification</title>
<path fill="none" stroke="black" d="M1108,-607C1108,-607 1260,-607 1260,-607 1266,-607 1272,-613 1272,-619 1272,-619 1272,-731 1272,-731 1272,-737 1266,-743 1260,-743 1260,-743 1108,-743 1108,-743 1102,-743 1096,-737 1096,-731 1096,-731 1096,-619 1096,-619 1096,-613 1102,-607 1108,-607"/>
<text text-anchor="middle" x="1184" y="-727.8" font-family="Times,serif" font-size="14.00">RequestAcceptedNotification</text>
<polyline fill="none" stroke="black" points="1096,-720 1272,-720 "/>
<text text-anchor="start" x="1104" y="-704.8" font-family="Times,serif" font-size="14.00">id :INTEGER</text>
<text text-anchor="start" x="1104" y="-689.8" font-family="Times,serif" font-size="14.00">user_id :integer</text>
<text text-anchor="start" x="1104" y="-674.8" font-family="Times,serif" font-size="14.00">read_status :integer</text>
<text text-anchor="start" x="1104" y="-659.8" font-family="Times,serif" font-size="14.00">created_at :datetime</text>
<text text-anchor="start" x="1104" y="-644.8" font-family="Times,serif" font-size="14.00">updated_at :datetime</text>
<text text-anchor="start" x="1104" y="-629.8" font-family="Times,serif" font-size="14.00">book_id :integer</text>
<text text-anchor="start" x="1104" y="-614.8" font-family="Times,serif" font-size="14.00">type :varchar</text>
</g>
<!-- NewRequestNotification -->
<g id="node10" class="node"><title>NewRequestNotification</title>
<path fill="none" stroke="black" d="M1302.5,-607C1302.5,-607 1429.5,-607 1429.5,-607 1435.5,-607 1441.5,-613 1441.5,-619 1441.5,-619 1441.5,-731 1441.5,-731 1441.5,-737 1435.5,-743 1429.5,-743 1429.5,-743 1302.5,-743 1302.5,-743 1296.5,-743 1290.5,-737 1290.5,-731 1290.5,-731 1290.5,-619 1290.5,-619 1290.5,-613 1296.5,-607 1302.5,-607"/>
<text text-anchor="middle" x="1366" y="-727.8" font-family="Times,serif" font-size="14.00">NewRequestNotification</text>
<polyline fill="none" stroke="black" points="1290.5,-720 1441.5,-720 "/>
<text text-anchor="start" x="1298.5" y="-704.8" font-family="Times,serif" font-size="14.00">id :INTEGER</text>
<text text-anchor="start" x="1298.5" y="-689.8" font-family="Times,serif" font-size="14.00">user_id :integer</text>
<text text-anchor="start" x="1298.5" y="-674.8" font-family="Times,serif" font-size="14.00">read_status :integer</text>
<text text-anchor="start" x="1298.5" y="-659.8" font-family="Times,serif" font-size="14.00">created_at :datetime</text>
<text text-anchor="start" x="1298.5" y="-644.8" font-family="Times,serif" font-size="14.00">updated_at :datetime</text>
<text text-anchor="start" x="1298.5" y="-629.8" font-family="Times,serif" font-size="14.00">book_id :integer</text>
<text text-anchor="start" x="1298.5" y="-614.8" font-family="Times,serif" font-size="14.00">type :varchar</text>
</g>
</g>
</svg>
